<svg width="64" height="65" viewBox="0 0 64 65" fill="none" xmlns="http://www.w3.org/2000/svg">
<path d="M32.0036 34.9206C34.9491 34.9206 37.337 32.5328 37.337 29.5872C37.337 26.6417 34.9491 24.2539 32.0036 24.2539C29.0581 24.2539 26.6703 26.6417 26.6703 29.5872C26.6703 32.5328 29.0581 34.9206 32.0036 34.9206Z" stroke="white" stroke-width="3" stroke-linecap="round" stroke-linejoin="round"/>
<path d="M10.6686 45.5912C7.19916 40.9782 5.32693 35.3606 5.33523 29.5885C5.33523 14.8605 17.2739 2.92188 32.0019 2.92188C46.7299 2.92188 58.6686 14.8605 58.6686 29.5885C58.6686 35.5939 56.6846 41.1352 53.3352 45.5912" stroke="white" stroke-width="3" stroke-linecap="round" stroke-linejoin="round"/>
<path d="M20.0744 40.2545C18.0152 37.9523 16.6663 35.1034 16.1906 32.0515C15.715 28.9996 16.1328 25.8753 17.3937 23.0557C18.6546 20.236 20.7047 17.8417 23.2965 16.1615C25.8883 14.4814 28.911 13.5874 31.9998 13.5874C35.0885 13.5874 38.1112 14.4814 40.703 16.1615C43.2948 17.8417 45.3449 20.236 46.6058 23.0557C47.8667 25.8753 48.2846 28.9996 47.8089 32.0515C47.3332 35.1034 45.9843 37.9523 43.9251 40.2545M26.5384 47.9238C28.5918 44.9425 29.6211 43.4518 30.9544 43.0705C31.6371 42.8714 32.3624 42.8714 33.0451 43.0705C34.3784 43.4518 35.4078 44.9425 37.4638 47.9238C40.1971 51.8891 41.5651 53.8731 41.3011 55.5265C41.1708 56.3595 40.7872 57.1323 40.2024 57.7398C39.0558 58.9211 36.7038 58.9211 31.9998 58.9211C27.2958 58.9211 24.9438 58.9211 23.7971 57.7371C23.2128 57.1304 22.8293 56.3586 22.6984 55.5265C22.4344 53.8731 23.8024 51.8891 26.5384 47.9238Z" stroke="white" stroke-width="3" stroke-linecap="round" stroke-linejoin="round"/>
</svg>
