<svg width="40" height="41" viewBox="0 0 40 41" fill="none" xmlns="http://www.w3.org/2000/svg">
<g clip-path="url(#clip0_931_1756)">
<path d="M3.616 12.3813V28.0613C3.616 29.0693 4.144 29.9813 5.024 30.4933L18.608 38.3333C19.472 38.8293 20.544 38.8293 21.408 38.3333L34.992 30.4933C35.856 29.9973 36.4 29.0693 36.4 28.0613V12.3813C36.4 11.3733 35.872 10.4613 34.992 9.94931L21.408 2.1093C20.544 1.6133 19.472 1.6133 18.608 2.1093L5.024 9.94931C4.16 10.4453 3.632 11.3733 3.632 12.3813H3.616Z" fill="#213147"/>
<path d="M22.9601 23.2619L21.0241 28.5739C20.9761 28.7179 20.9761 28.8779 21.0241 29.0379L24.3521 38.1739L28.2081 35.9499L23.5841 23.2619C23.4721 22.9739 23.0721 22.9739 22.9601 23.2619Z" fill="#12AAFF"/>
<path d="M26.848 14.3342C26.736 14.0462 26.336 14.0462 26.224 14.3342L24.288 19.6462C24.24 19.7902 24.24 19.9502 24.288 20.1102L29.744 35.0702L33.6 32.8462L26.848 14.3502V14.3342Z" fill="#12AAFF"/>
<path d="M20 2.70168C20.096 2.70168 20.192 2.73368 20.272 2.78168L34.96 11.2617C35.136 11.3577 35.232 11.5497 35.232 11.7417V28.7017C35.232 28.8937 35.12 29.0857 34.96 29.1817L20.272 37.6617C20.192 37.7097 20.096 37.7417 20 37.7417C19.904 37.7417 19.808 37.7097 19.728 37.6617L5.04 29.1817C4.864 29.0857 4.768 28.8937 4.768 28.7017V11.7257C4.768 11.5337 4.88 11.3417 5.04 11.2457L19.728 2.76568C19.808 2.71768 19.904 2.68568 20 2.68568V2.70168ZM20 0.22168C19.472 0.22168 18.96 0.34968 18.48 0.62168L3.792 9.10168C2.848 9.64568 2.272 10.6377 2.272 11.7257V28.6857C2.272 29.7737 2.848 30.7657 3.792 31.3097L18.48 39.7897C18.944 40.0617 19.472 40.1897 20 40.1897C20.528 40.1897 21.04 40.0617 21.52 39.7897L36.208 31.3097C37.152 30.7657 37.728 29.7737 37.728 28.6857V11.7257C37.728 10.6377 37.152 9.64568 36.208 9.10168L21.504 0.62168C21.04 0.34968 20.512 0.22168 19.984 0.22168H20Z" fill="#9DCCED"/>
<path d="M10.272 35.086L11.632 31.374L14.352 33.63L11.808 35.966L10.272 35.086Z" fill="#213147"/>
<path d="M18.752 10.5258H15.024C14.752 10.5258 14.496 10.7018 14.4 10.9578L6.41602 32.8458L10.272 35.0698L19.072 10.9578C19.152 10.7338 18.992 10.5098 18.768 10.5098L18.752 10.5258Z" fill="white"/>
<path d="M25.28 10.5258H21.552C21.28 10.5258 21.024 10.7018 20.928 10.9578L11.808 35.9498L15.664 38.1738L25.584 10.9578C25.664 10.7338 25.504 10.5098 25.28 10.5098V10.5258Z" fill="white"/>
</g>
<defs>
<clipPath id="clip0_931_1756">
<rect width="40" height="40" fill="white" transform="translate(0 0.22168)"/>
</clipPath>
</defs>
</svg>
