<svg width="40" height="41" viewBox="0 0 40 41" fill="none" xmlns="http://www.w3.org/2000/svg">
<g clip-path="url(#clip0_931_1798)">
<path d="M32.3353 7.08301H7.63806V29.5298H32.3353V7.08301Z" fill="white"/>
<path fill-rule="evenodd" clip-rule="evenodd" d="M39.9867 20.2215C39.9867 31.2526 31.0385 40.1949 20 40.1949C8.96165 40.1949 0.0133057 31.2526 0.0133057 20.2215C0.0133057 9.19044 8.96165 0.248047 20 0.248047C31.0385 0.248047 39.9867 9.19044 39.9867 20.2215ZM14.3363 28.1699H10.4575C9.64242 28.1699 9.23981 28.1699 8.99433 28.0129C8.72918 27.8411 8.56716 27.5566 8.54752 27.2425C8.53277 26.9531 8.7341 26.5997 9.13671 25.8931L18.7141 9.02291C19.1216 8.30653 19.3278 7.94834 19.588 7.81587C19.8679 7.67358 20.2018 7.67358 20.4817 7.81587C20.7419 7.94834 20.9481 8.30653 21.3556 9.02291L23.3245 12.4576L23.3346 12.4751C23.7747 13.2437 23.9979 13.6334 24.0954 14.0424C24.2034 14.489 24.2034 14.96 24.0954 15.4065C23.9972 15.8187 23.7763 16.2112 23.3294 16.9914L18.2987 25.8784L18.2857 25.9012C17.8426 26.6761 17.6181 27.0688 17.3069 27.3651C16.9681 27.689 16.5606 27.9244 16.1137 28.0571C15.7062 28.1699 15.2496 28.1699 14.3363 28.1699ZM24.1317 28.1699H29.6897C30.5096 28.1699 30.9222 28.1699 31.1678 28.0082C31.4329 27.8363 31.5997 27.5467 31.6146 27.2329C31.6287 26.9528 31.4318 26.6132 31.0459 25.9477C31.0326 25.925 31.0193 25.902 31.0057 25.8785L28.2217 21.1191L28.19 21.0655C27.7988 20.4043 27.6013 20.0705 27.3477 19.9415C27.068 19.7991 26.7388 19.7991 26.4591 19.9415C26.2037 20.0739 25.9975 20.4223 25.59 21.124L22.8159 25.8834L22.8064 25.8998C22.4003 26.6004 22.1973 26.9504 22.2119 27.2377C22.2316 27.5518 22.3936 27.8411 22.6587 28.0129C22.8993 28.1699 23.3118 28.1699 24.1317 28.1699Z" fill="#E84142"/>
</g>
<defs>
<clipPath id="clip0_931_1798">
<rect width="40" height="40" fill="white" transform="translate(0 0.22168)"/>
</clipPath>
</defs>
</svg>
