<svg width="22" height="17" viewBox="0 0 22 17" fill="none" xmlns="http://www.w3.org/2000/svg">
<path d="M18.2682 2.15275C16.9382 1.53275 15.4982 1.08275 13.9982 0.822754C13.9718 0.82313 13.9466 0.833913 13.9282 0.852754C13.7482 1.18275 13.5382 1.61275 13.3982 1.94275C11.8072 1.7029 10.1892 1.7029 8.59816 1.94275C8.45816 1.60275 8.24816 1.18275 8.05816 0.852754C8.04816 0.832754 8.01816 0.822754 7.98816 0.822754C6.48816 1.08275 5.05816 1.53275 3.71816 2.15275C3.70816 2.15275 3.69816 2.16275 3.68816 2.17275C0.968164 6.24275 0.218164 10.2028 0.588164 14.1228C0.588164 14.1428 0.598164 14.1628 0.618164 14.1728C2.41816 15.4928 4.14816 16.2928 5.85816 16.8228C5.88816 16.8328 5.91816 16.8228 5.92816 16.8028C6.32816 16.2528 6.68816 15.6728 6.99816 15.0628C7.01816 15.0228 6.99816 14.9828 6.95816 14.9728C6.38816 14.7528 5.84816 14.4928 5.31816 14.1928C5.27816 14.1728 5.27816 14.1128 5.30816 14.0828C5.41816 14.0028 5.52816 13.9128 5.63816 13.8328C5.65816 13.8128 5.68816 13.8128 5.70816 13.8228C9.14816 15.3928 12.8582 15.3928 16.2582 13.8228C16.2782 13.8128 16.3082 13.8128 16.3282 13.8328C16.4382 13.9228 16.5482 14.0028 16.6582 14.0928C16.6982 14.1228 16.6982 14.1828 16.6482 14.2028C16.1282 14.5128 15.5782 14.7628 15.0082 14.9828C14.9682 14.9928 14.9582 15.0428 14.9682 15.0728C15.2882 15.6828 15.6482 16.2628 16.0382 16.8128C16.0682 16.8228 16.0982 16.8328 16.1282 16.8228C17.8482 16.2928 19.5782 15.4928 21.3782 14.1728C21.3982 14.1628 21.4082 14.1428 21.4082 14.1228C21.8482 9.59275 20.6782 5.66275 18.3082 2.17275C18.2982 2.16275 18.2882 2.15275 18.2682 2.15275ZM7.51816 11.7328C6.48816 11.7328 5.62816 10.7828 5.62816 9.61275C5.62816 8.44275 6.46816 7.49275 7.51816 7.49275C8.57817 7.49275 9.41816 8.45275 9.40816 9.61275C9.40816 10.7828 8.56816 11.7328 7.51816 11.7328ZM14.4882 11.7328C13.4582 11.7328 12.5982 10.7828 12.5982 9.61275C12.5982 8.44275 13.4382 7.49275 14.4882 7.49275C15.5482 7.49275 16.3882 8.45275 16.3782 9.61275C16.3782 10.7828 15.5482 11.7328 14.4882 11.7328Z" fill="#151515"/>
</svg>
