<svg width="41" height="37" viewBox="0 0 41 37" fill="none" xmlns="http://www.w3.org/2000/svg">
<path d="M34.189 8.10354C33.7108 8.06006 33.363 7.63398 33.4064 7.15573L33.6934 3.97319L18.3198 16.0338C17.9633 16.3121 17.4503 16.2686 17.1459 15.9382L13.0938 11.6165L2.25058 20.112C2.09406 20.2337 1.90276 20.2946 1.72015 20.2946C1.45929 20.2946 1.20712 20.1815 1.03321 19.9642C0.737566 19.5816 0.807129 19.0424 1.18103 18.7468L12.6504 9.75568C12.9982 9.47742 13.5112 9.5209 13.8155 9.84263L17.8676 14.173L32.4934 2.70365L29.4761 2.4254C28.9978 2.38192 28.6413 1.96454 28.6848 1.48628C28.7283 1.00803 29.1457 0.651519 29.6326 0.694997L34.8238 1.17325C35.0586 1.19064 35.2847 1.29498 35.4412 1.50368C35.6064 1.70367 35.6499 1.94714 35.6064 2.18192L35.1368 7.32094C35.0934 7.76441 34.7195 8.10354 34.2673 8.10354H34.189Z" fill="white"/>
<path d="M30.4149 21.1642V35.9465C30.4149 36.4248 30.0236 36.8161 29.5454 36.8161H24.3281C23.8411 36.8161 23.4585 36.4248 23.4585 35.9465V25.512C23.4585 25.2598 23.5716 25.0076 23.7716 24.8424L28.9888 20.4947C29.241 20.286 29.6062 20.2338 29.9106 20.3816C30.2149 20.5208 30.4149 20.8251 30.4149 21.1642Z" fill="white"/>
<path d="M19.9803 22.0336V35.9464C19.9803 36.4246 19.589 36.8159 19.1108 36.8159H13.8935C13.4066 36.8159 13.024 36.4246 13.024 35.9464V25.5118C13.024 25.2249 13.1631 24.9553 13.4066 24.7901L18.6238 21.3119C18.8934 21.138 19.2325 21.1206 19.5195 21.2684C19.7977 21.425 19.9803 21.7119 19.9803 22.0336Z" fill="white"/>
<path d="M40.8494 8.12127V35.9468C40.8494 36.425 40.4581 36.8163 39.9799 36.8163H34.7626C34.2757 36.8163 33.8931 36.425 33.8931 35.9468V12.469C33.8931 12.2168 34.0061 11.9647 34.2061 11.7995L39.4234 7.45172C39.6756 7.24303 40.0408 7.19086 40.3451 7.33868C40.6494 7.47781 40.8494 7.78215 40.8494 8.12127Z" fill="white"/>
<path d="M9.54576 29.8598V35.9466C9.54576 36.4249 9.15446 36.8162 8.67621 36.8162H3.45893C2.97199 36.8162 2.58939 36.4249 2.58939 35.9466V33.338C2.58939 33.0511 2.72851 32.7815 2.97199 32.6163L8.18927 29.1381C8.45883 28.9642 8.79795 28.9468 9.0849 29.0946C9.36315 29.2511 9.54576 29.5381 9.54576 29.8598Z" fill="white"/>
</svg>
