<svg width="30" height="31" viewBox="0 0 30 31" fill="none" xmlns="http://www.w3.org/2000/svg">
<path fill-rule="evenodd" clip-rule="evenodd" d="M15 4.69629C15.3315 4.69629 15.6495 4.82799 15.8839 5.06241C16.1183 5.29683 16.25 5.61477 16.25 5.94629C16.25 6.27781 16.1183 6.59575 15.8839 6.83017C15.6495 7.06459 15.3315 7.19629 15 7.19629H13.75V8.44629H17.205C17.5929 8.44632 17.9755 8.53661 18.3225 8.71004L22.3675 10.7325C22.7829 10.9401 23.1323 11.2593 23.3764 11.6543C23.6206 12.0492 23.75 12.5044 23.75 12.9688V15.9463H25V14.6963C25 14.3648 25.1317 14.0468 25.3661 13.8124C25.6005 13.578 25.9185 13.4463 26.25 13.4463C26.5815 13.4463 26.8995 13.578 27.1339 13.8124C27.3683 14.0468 27.5 14.3648 27.5 14.6963V19.6963C27.5 20.0278 27.3683 20.3458 27.1339 20.5802C26.8995 20.8146 26.5815 20.9463 26.25 20.9463C25.9185 20.9463 25.6005 20.8146 25.3661 20.5802C25.1317 20.3458 25 20.0278 25 19.6963V18.4463H23.75V20.3213C23.75 20.7094 23.6596 21.0922 23.4861 21.4393C23.3125 21.7865 23.0605 22.0884 22.75 22.3213L18.5837 25.4463C18.151 25.7708 17.6247 25.9463 17.0837 25.9463H6.25C5.58696 25.9463 4.95107 25.6829 4.48223 25.2141C4.01339 24.7452 3.75 24.1093 3.75 23.4463V10.9463C3.75 10.2832 4.01339 9.64736 4.48223 9.17852C4.95107 8.70968 5.58696 8.44629 6.25 8.44629H11.25V7.19629H10C9.66848 7.19629 9.35054 7.06459 9.11612 6.83017C8.8817 6.59575 8.75 6.27781 8.75 5.94629C8.75 5.61477 8.8817 5.29683 9.11612 5.06241C9.35054 4.82799 9.66848 4.69629 10 4.69629H15ZM13.7688 13C13.5061 12.8421 13.1946 12.7861 12.8933 12.8428C12.5921 12.8995 12.3223 13.0649 12.135 13.3075L12.0537 13.4288L10.19 16.5338C10.0811 16.7148 10.0194 16.9203 10.0105 17.1314C10.0016 17.3425 10.0458 17.5525 10.1391 17.742C10.2324 17.9316 10.3718 18.0947 10.5444 18.2165C10.7171 18.3382 10.9176 18.4146 11.1275 18.4388L11.2725 18.4463H12.7925L12.0537 19.6788C11.891 19.9522 11.8386 20.2774 11.9072 20.5881C11.9759 20.8988 12.1605 21.1716 12.4233 21.3509C12.6862 21.5302 13.0075 21.6026 13.3218 21.5532C13.6362 21.5038 13.9198 21.3363 14.115 21.085L14.1975 20.965L16.06 17.8588C16.1689 17.6777 16.2306 17.4723 16.2395 17.2612C16.2484 17.0501 16.2042 16.8401 16.1109 16.6505C16.0176 16.461 15.8782 16.2979 15.7056 16.1761C15.5329 16.0544 15.3324 15.9779 15.1225 15.9538L14.9775 15.9463H13.4575L14.1963 14.715C14.3669 14.4309 14.4178 14.0906 14.3376 13.769C14.2574 13.4474 14.0528 13.1708 13.7688 13Z" fill="#151515"/>
</svg>
