<svg width="40" height="41" viewBox="0 0 40 41" fill="none" xmlns="http://www.w3.org/2000/svg">
<path d="M20 40.2217C31.0457 40.2217 40 31.2674 40 20.2217C40 9.17599 31.0457 0.22168 20 0.22168C8.95431 0.22168 0 9.17599 0 20.2217C0 31.2674 8.95431 40.2217 20 40.2217Z" fill="black"/>
<path d="M19.998 25.6692L13.278 21.6992L19.998 31.1712L26.724 21.6992L19.998 25.6692Z" fill="white"/>
<path d="M26.72 20.4255L19.998 24.3975L13.276 20.4255L19.998 9.27148L26.72 20.4255Z" fill="white"/>
<path d="M26.7199 20.4255L19.9979 17.3695V9.27148L26.7199 20.4255Z" fill="#707070"/>
<path d="M26.7239 21.6992L19.9979 31.1712V25.6692L26.7239 21.6992Z" fill="#707070"/>
<path d="M19.9979 17.3701V24.3981L13.2779 20.4261L19.9979 17.3701Z" fill="#707070"/>
<path d="M26.72 20.4261L19.998 24.3981V17.3701L26.72 20.4261Z" fill="#424242"/>
</svg>
