<svg width="54" height="50" viewBox="0 0 54 50" fill="none" xmlns="http://www.w3.org/2000/svg">
<path d="M44.921 32.4377C45.8543 30.171 46.361 27.7443 46.361 25.0777C46.361 23.1577 46.0677 21.3177 45.561 19.611C43.8277 20.011 42.0143 20.2243 40.121 20.2243C36.2436 20.2285 32.422 19.3004 28.9784 17.5182C25.5348 15.7361 22.5702 13.1522 20.3343 9.98432C17.9449 15.773 13.4323 20.4287 7.72102 22.9977C7.61435 23.6643 7.61435 24.3843 7.61435 25.0777C7.61435 27.6236 8.1158 30.1445 9.09007 32.4966C10.0643 34.8487 11.4924 36.9859 13.2926 38.7861C16.9283 42.4218 21.8594 44.4643 27.001 44.4643C29.801 44.4643 32.4944 43.851 34.921 42.7577C36.441 45.6643 37.1343 47.1043 37.081 47.1043C32.7077 48.571 29.321 49.291 27.001 49.291C20.5477 49.291 14.3877 46.7577 9.85435 42.1977C7.09448 39.4508 5.0444 36.0737 3.88102 32.3577H0.334351V20.2243H3.24102C4.12166 15.9377 6.14633 11.9694 9.10019 8.74057C12.054 5.51172 15.8269 3.14274 20.0184 1.88501C24.2099 0.627283 28.6638 0.527715 32.9073 1.59687C37.1509 2.66603 41.0258 4.86404 44.121 7.95766C47.4804 11.3059 49.7725 15.5744 50.7077 20.2243H53.6677V32.3577H53.5077L44.0143 41.0777L29.881 39.4777V35.0243H42.761L44.921 32.4377ZM19.721 24.4643C20.521 24.4643 21.2943 24.7843 21.8543 25.371C22.4171 25.9384 22.7329 26.7052 22.7329 27.5043C22.7329 28.3035 22.4171 29.0703 21.8543 29.6377C21.2943 30.1977 20.521 30.5177 19.721 30.5177C18.041 30.5177 16.681 29.1843 16.681 27.5043C16.681 25.8243 18.041 24.4643 19.721 24.4643ZM34.2543 24.4643C35.9343 24.4643 37.2677 25.8243 37.2677 27.5043C37.2677 29.1843 35.9343 30.5177 34.2543 30.5177C32.5743 30.5177 31.2143 29.1843 31.2143 27.5043C31.2143 26.6981 31.5346 25.9248 32.1047 25.3547C32.6749 24.7846 33.4481 24.4643 34.2543 24.4643Z" fill="white"/>
</svg>
