<svg width="162" height="162" viewBox="0 0 162 162" fill="none" xmlns="http://www.w3.org/2000/svg">
<rect x="3.21875" y="3.14084" width="155.564" height="155.564" rx="77.7822" fill="url(#paint0_linear_740_895)"/>
<rect x="3.21875" y="3.14084" width="155.564" height="155.564" rx="77.7822" stroke="#656565" stroke-width="5"/>
<path d="M100.88 76.0979L90.0291 76.1841V84.6643C90.0291 90.681 87.0731 93.6863 81.1611 93.6863C75.249 93.6863 72.2129 90.681 72.2129 84.6643V55.923H57.8454V86.1977C57.8454 92.4669 59.97 97.3198 64.2316 100.762C68.4871 104.205 74.1343 105.923 81.1672 105.923C85.7552 105.923 89.8074 105.159 93.3239 103.632C96.4893 102.259 99.0019 100.3 100.893 97.7693V76.1041L100.88 76.0979Z" fill="white"/>
<path d="M104.157 55.923H90.0292V65.4131C92.9606 65.3146 102.321 64.3354 104.157 55.923Z" fill="white"/>
<defs>
<linearGradient id="paint0_linear_740_895" x1="67.9609" y1="-12.3426" x2="107.013" y2="182.918" gradientUnits="userSpaceOnUse">
<stop/>
<stop offset="1" stop-color="#666666"/>
</linearGradient>
</defs>
</svg>
