<svg width="16" height="26" viewBox="0 0 16 26" fill="none" xmlns="http://www.w3.org/2000/svg">
<path d="M7.99959 0.561524C7.06065 0.566207 6.13181 0.756796 5.26613 1.12244C4.40046 1.48809 3.61491 2.02165 2.95434 2.69258C2.29376 3.36351 1.77111 4.15871 1.41622 5.03274C1.06133 5.90679 0.881176 6.84255 0.88602 7.78661V10.1731H6.66585V6.71556C6.66578 6.55318 6.69754 6.39238 6.7593 6.24235C6.82106 6.09232 6.91163 5.95599 7.02581 5.84116C7.13999 5.72633 7.27557 5.63529 7.42477 5.57316C7.57398 5.51102 7.73391 5.47907 7.89541 5.4791H8.10378C8.26529 5.47907 8.42525 5.51103 8.57442 5.57316C8.72367 5.63529 8.85923 5.72633 8.97349 5.84116C9.08767 5.95599 9.17822 6.09232 9.24005 6.24235C9.30182 6.39238 9.3336 6.55317 9.3336 6.71556V15.9844C10.0926 15.9844 10.8442 15.8341 11.5455 15.5421C12.2467 15.2501 12.8839 14.822 13.4206 14.2824C13.9574 13.7428 14.383 13.1021 14.6735 12.3971C14.964 11.692 15.1134 10.9363 15.1134 10.1731V7.78661C15.1175 5.87383 14.3684 4.03717 13.0297 2.67806C12.3729 2.00737 11.5899 1.47483 10.7262 1.11145C9.86269 0.748082 8.9358 0.56113 7.99959 0.561524Z" fill="#151515"/>
<path d="M8.10406 20.676H7.89569C7.73421 20.676 7.57431 20.644 7.42512 20.5819C7.27592 20.5198 7.14036 20.4287 7.02618 20.3139C6.91199 20.1991 6.82143 20.0628 6.75965 19.9128C6.69787 19.7628 6.66609 19.602 6.66612 19.4397V10.1709C5.90708 10.1708 5.15546 10.321 4.45419 10.613C3.75292 10.9051 3.11575 11.3331 2.57903 11.8728C2.04231 12.4124 1.61656 13.0531 1.32612 13.7582C1.03568 14.4632 0.886233 15.219 0.886298 15.9821V18.3354C0.876669 19.2809 1.05356 20.2188 1.40674 21.0951C1.75991 21.9714 2.28237 22.7685 2.9439 23.4405C3.60542 24.1125 4.39288 24.6459 5.26074 25.01C6.12859 25.374 7.05963 25.5615 7.99999 25.5615C8.94036 25.5615 9.87137 25.374 10.7393 25.01C11.6071 24.6459 12.3946 24.1125 13.0561 23.4405C13.7176 22.7685 14.2401 21.9714 14.5932 21.0951C14.9465 20.2188 15.1233 19.2809 15.1137 18.3354V15.9821H9.3339V19.4397C9.3339 19.6021 9.30204 19.7628 9.24028 19.9128C9.17844 20.0628 9.08782 20.1992 8.97364 20.3139C8.85946 20.4288 8.72389 20.5198 8.57465 20.5819C8.42547 20.644 8.26555 20.676 8.10406 20.676Z" fill="#151515"/>
</svg>
