<svg width="64" height="65" viewBox="0 0 64 65" fill="none" xmlns="http://www.w3.org/2000/svg">
<g clip-path="url(#clip0_134_3296)">
<path d="M18 8.00391H38C39.6576 8.00391 41.2468 8.66286 42.4189 9.83496C43.591 11.0071 44.25 12.5963 44.25 14.2539V26.0039H48C49.6576 26.0039 51.2468 26.6629 52.4189 27.835C53.591 29.0071 54.25 30.5963 54.25 32.2539V41.7539C54.25 42.3506 54.4872 42.9228 54.9092 43.3447C55.3311 43.7667 55.9033 44.0039 56.5 44.0039C57.0967 44.0039 57.6689 43.7667 58.0908 43.3447C58.5128 42.9228 58.75 42.3506 58.75 41.7539V21.9111C58.7501 21.6816 58.7049 21.4543 58.6172 21.2422C58.5514 21.0829 58.4623 20.9346 58.3535 20.8018L58.2383 20.6738L58.2373 20.6729L53.4023 15.8506C52.9798 15.4278 52.7423 14.8546 52.7422 14.2568C52.7422 13.6587 52.9804 13.085 53.4033 12.6621C53.8261 12.2393 54.3991 12.0011 54.9971 12.001C55.5952 12.001 56.1689 12.2392 56.5918 12.6621V12.6611L61.4199 17.4912L61.4209 17.4932C62.0027 18.0715 62.4644 18.7597 62.7783 19.5176C63.053 20.1807 63.2098 20.8861 63.2432 21.6016L63.25 21.9092V41.7539C63.25 43.5441 62.5393 45.2615 61.2734 46.5273C60.0076 47.7932 58.2902 48.5039 56.5 48.5039C54.7098 48.5039 52.9924 47.7932 51.7266 46.5273C50.4607 45.2615 49.75 43.5441 49.75 41.7539V32.2539C49.75 31.7898 49.5655 31.3448 49.2373 31.0166C48.9091 30.6884 48.4641 30.5039 48 30.5039H44.25V52.0039H48C48.5967 52.0039 49.1689 52.2411 49.5908 52.6631C50.0128 53.085 50.25 53.6572 50.25 54.2539C50.25 54.8506 50.0128 55.4228 49.5908 55.8447C49.1689 56.2667 48.5967 56.5039 48 56.5039H8C7.47785 56.5039 6.9746 56.3222 6.57422 55.9941L6.40918 55.8447C5.98722 55.4228 5.75 54.8506 5.75 54.2539C5.75 53.7318 5.93171 53.2285 6.25977 52.8281L6.40918 52.6631C6.83114 52.2411 7.40326 52.0039 8 52.0039H11.75V14.2539C11.75 12.5963 12.409 11.0071 13.5811 9.83496C14.7532 8.66286 16.3424 8.00391 18 8.00391ZM18 12.5039C17.5359 12.5039 17.0909 12.6884 16.7627 13.0166C16.4345 13.3448 16.25 13.7898 16.25 14.2539V52.0039H39.75V14.2539C39.75 13.7898 39.5655 13.3448 39.2373 13.0166C38.9091 12.6884 38.4641 12.5039 38 12.5039H18ZM24 26.0039H32C32.5967 26.0039 33.1689 26.2411 33.5908 26.6631C34.0128 27.085 34.25 27.6572 34.25 28.2539C34.25 28.8506 34.0128 29.4228 33.5908 29.8447C33.1689 30.2667 32.5967 30.5039 32 30.5039H24C23.4033 30.5039 22.8311 30.2667 22.4092 29.8447C21.9872 29.4228 21.75 28.8506 21.75 28.2539C21.75 27.6572 21.9872 27.085 22.4092 26.6631C22.8311 26.2411 23.4033 26.0039 24 26.0039Z" fill="white" stroke="#151515" stroke-width="1.5"/>
</g>
<defs>
<clipPath id="clip0_134_3296">
<rect width="64" height="64" fill="white" transform="translate(0 0.253906)"/>
</clipPath>
</defs>
</svg>
