<svg width="41" height="40" viewBox="0 0 41 40" fill="none" xmlns="http://www.w3.org/2000/svg">
<path d="M37.7305 17.7744H31.6515C31.2844 17.7744 30.9852 18.0662 30.9852 18.424V31.0549C30.9852 31.4128 31.2844 31.7045 31.6515 31.7045H37.7305C38.0975 31.7045 38.3968 31.4128 38.3968 31.0549V18.424C38.3968 18.0662 38.0975 17.7744 37.7305 17.7744Z" fill="white"/>
<path d="M34.691 36.7571C35.1641 36.7571 35.5489 36.382 35.5489 35.9206V32.8716H33.8331V35.9206C33.8331 36.382 34.2178 36.7571 34.691 36.7571Z" fill="white"/>
<path d="M35.5489 12.4322C35.5489 11.9708 35.1641 11.5957 34.691 11.5957C34.2178 11.5957 33.8331 11.9708 33.8331 12.4322V16.669H35.5489V12.4322Z" fill="white"/>
<path d="M7.00893 14.5391C6.53576 14.5391 6.15103 14.9142 6.15103 15.3755V19.6124H7.86683V15.3755C7.86683 14.9142 7.4821 14.5391 7.00893 14.5391Z" fill="white"/>
<path d="M6.15103 35.9201C6.15103 36.3815 6.53576 36.7566 7.00893 36.7566C7.4821 36.7566 7.86683 36.3815 7.86683 35.9201V32.8711H6.15103V35.9201Z" fill="white"/>
<path d="M10.0484 20.7178H3.9687C3.60166 20.7178 3.30243 21.0095 3.30243 21.3674V31.0549C3.30243 31.4127 3.60166 31.7045 3.9687 31.7045H10.0484C10.4155 31.7045 10.7147 31.4127 10.7147 31.0549V21.3674C10.7147 21.0095 10.4155 20.7178 10.0484 20.7178Z" fill="white"/>
<path d="M20.8496 36.7566C21.3228 36.7566 21.7075 36.3814 21.7075 35.9201V34.3428H19.9917V35.9201C19.9917 36.3814 20.3764 36.7566 20.8496 36.7566Z" fill="white"/>
<path d="M23.8898 25.1328H17.8101C17.4431 25.1328 17.1438 25.4246 17.1438 25.7824V32.5265C17.1438 32.8844 17.4431 33.1761 17.8101 33.1761H23.8898C24.2569 33.1761 24.5561 32.8844 24.5561 32.5265V25.7824C24.5561 25.4246 24.2569 25.1328 23.8898 25.1328Z" fill="white"/>
<path d="M21.7075 21.2622C21.7075 20.8009 21.3228 20.4258 20.8496 20.4258C20.3764 20.4258 19.9917 20.8009 19.9917 21.2622V24.0274H21.7075V21.2622Z" fill="white"/>
<path d="M20.854 16.4305C24.7197 16.4305 27.8654 13.3607 27.8654 9.58655C27.8654 5.81748 24.7197 2.75049 20.854 2.75049C16.9831 2.75049 13.8346 5.81748 13.8346 9.58655C13.8346 13.3607 16.9831 16.4305 20.854 16.4305ZM22.1482 10.1176L19.5259 10.142C18.9156 10.142 18.4189 9.65841 18.4189 9.06341V7.20223C18.4189 6.60723 18.9156 6.12361 19.5259 6.12361H20.2836V5.53938C20.2836 5.2347 20.5371 4.9875 20.8496 4.9875C21.1621 4.9875 21.4156 5.2347 21.4156 5.53938V6.12361H22.7143C23.0268 6.12361 23.2803 6.37081 23.2803 6.6755C23.2803 6.98018 23.0268 7.22738 22.7143 7.22738H19.5259L19.551 9.06341L22.174 9.03826C22.7843 9.03826 23.2803 9.5226 23.2803 10.1176V11.9788C23.2803 12.5738 22.7843 13.0574 22.174 13.0574H21.4156V13.6416C21.4156 13.9463 21.1621 14.1935 20.8496 14.1935C20.5371 14.1935 20.2836 13.9463 20.2836 13.6416V13.0574H18.9849C18.6724 13.0574 18.4189 12.8102 18.4189 12.5055C18.4189 12.2008 18.6724 11.9536 18.9849 11.9536H22.174L22.1482 10.1176Z" fill="white"/>
</svg>
