<svg width="41" height="41" viewBox="0 0 41 41" fill="none" xmlns="http://www.w3.org/2000/svg">
<g clip-path="url(#clip0_740_968)">
<path d="M13.3594 11.1914C13.3985 7.24609 16.6328 4.08984 20.5703 4.12891C24.4532 4.16797 27.5938 7.30859 27.6328 11.1914V15.2539H30.9297V11.1914C30.9375 5.42578 26.2657 0.753906 20.5 0.753906C14.7344 0.753906 10.0625 5.42578 10.0625 11.1914V15.2539H13.3594V11.1914Z" fill="white"/>
<path d="M33.2109 15.957H7.78125C5.39844 15.957 3.46875 17.8867 3.46875 20.2695V36.4492C3.46875 38.832 5.39844 40.7617 7.78125 40.7617H33.2109C35.5938 40.7617 37.5234 38.832 37.5234 36.4492V20.2695C37.5234 17.8867 35.5938 15.957 33.2109 15.957Z" fill="white"/>
<path d="M28.1562 29.8721V30.7793H15.2393L18.7734 34.3135L18.1318 34.9551L13.0488 29.8721H28.1562ZM28 26.792H12.8926V25.8848H25.8096L22.2754 22.3506L22.917 21.709L28 26.792Z" fill="#151515" stroke="#151515" stroke-width="0.687888"/>
</g>
<defs>
<clipPath id="clip0_740_968">
<rect width="40" height="40" fill="white" transform="translate(0.5 0.753906)"/>
</clipPath>
</defs>
</svg>
