<svg width="200" height="26" viewBox="0 0 200 26" fill="none" xmlns="http://www.w3.org/2000/svg">
<path d="M27.6142 0.876953H33.517L42.4841 13.4583V0.876953H49.4212V24.6398H43.4798L34.5513 12.0941V24.6398H27.6142V0.876953Z" fill="black"/>
<path d="M55.6362 22.5147C53.5825 20.8532 52.5541 18.5111 52.5541 15.4854V0.874023H59.4912V14.7483C59.4912 17.6521 60.9297 19.1026 63.8068 19.1026C66.6839 19.1026 68.0868 17.6521 68.0868 14.7483V0.874023H75.0239V15.4854C75.0239 17.5035 74.5573 19.2244 73.621 20.6511C72.6848 22.0778 71.3711 23.1597 69.674 23.8968C67.9768 24.6339 66.0211 25.0024 63.8068 25.0024C60.4126 25.0024 57.6871 24.1732 55.6333 22.5117L55.6362 22.5147Z" fill="black"/>
<path d="M81.3732 24.6194C79.9466 24.3608 78.7398 23.9982 77.756 23.5315V17.813C78.8885 18.3302 80.1308 18.7492 81.4832 19.0673C82.8355 19.3883 84.0898 19.5458 85.246 19.5458C86.5746 19.5458 87.5286 19.4299 88.1053 19.1951C88.6819 18.9603 88.9731 18.4996 88.9731 17.813C88.9731 17.3701 88.8305 17.0075 88.5481 16.7252C88.2657 16.4428 87.8526 16.1961 87.3117 15.9881C86.7707 15.78 85.9088 15.4887 84.7288 15.1202C84.3365 15.0221 84.0393 14.9359 83.8431 14.8616C82.2203 14.3444 80.9452 13.7797 80.0238 13.1645C79.1025 12.5492 78.4367 11.8062 78.0325 10.9323C77.6253 10.0585 77.4232 8.97067 77.4232 7.66587C77.4232 5.32971 78.2583 3.55233 79.9317 2.33373C81.605 1.11512 84.0631 0.508789 87.3117 0.508789C88.5659 0.508789 89.8886 0.612817 91.2766 0.820872C92.6676 1.02893 93.8149 1.28157 94.7273 1.57879V7.33596C92.5636 6.47401 90.4592 6.04602 88.4173 6.04602C87.1125 6.04602 86.1347 6.1441 85.4838 6.34027C84.8329 6.53643 84.5059 6.9674 84.5059 7.63318C84.5059 8.05226 84.6397 8.38515 84.9131 8.62887C85.1836 8.87556 85.5967 9.08956 86.1495 9.27384C86.7024 9.45812 87.6446 9.72264 88.9731 10.0674C90.8664 10.5846 92.3228 11.2058 93.3452 11.931C94.3647 12.6562 95.0721 13.4855 95.4674 14.4217C95.8597 15.358 96.0589 16.4874 96.0589 17.816C96.0589 20.0303 95.2029 21.7809 93.4939 23.0738C91.7848 24.3637 89.2704 25.0117 85.9474 25.0117C84.3246 25.0117 82.7999 24.8839 81.3732 24.6253V24.6194Z" fill="black"/>
<path d="M20.7727 10.614L15.5357 10.6556V14.7483C15.5357 17.6521 14.109 19.1026 11.2557 19.1026C8.40242 19.1026 6.93712 17.6521 6.93712 14.7483V0.874023H0V15.4854C0 18.5111 1.02541 20.8532 3.08217 22.5147C5.13597 24.1761 7.86147 25.0054 11.2557 25.0054C13.47 25.0054 15.4257 24.6368 17.1229 23.8997C18.6506 23.2369 19.8632 22.2918 20.7757 21.0702V10.614H20.7727Z" fill="black"/>
<path d="M22.3509 0.876953H15.5327V5.45713C16.9475 5.40957 21.4652 4.93699 22.3509 0.876953Z" fill="black"/>
<path d="M139.512 7.44922L135.045 20.8152H133.039L129.392 10.142L125.745 20.8152H123.703L119.236 7.44922H121.203L124.812 18.3126L128.575 7.44922H130.331L134.017 18.3721L137.702 7.44922H139.515H139.512Z" fill="black"/>
<path d="M149.935 17.4745H142.832L141.36 20.8152H139.393L145.444 7.44922H147.335L153.407 20.8152H151.4L149.929 17.4745H149.935ZM149.269 15.9468L146.386 9.39899L143.503 15.9468H149.269Z" fill="black"/>
<path d="M155.398 7.44922H157.306V19.1538H164.543V20.8152H155.398V7.44922Z" fill="black"/>
<path d="M166.74 7.44922H168.648V19.1538H175.885V20.8152H166.74V7.44922Z" fill="black"/>
<path d="M187.783 19.1538V20.8152H178.085V7.44922H187.516V9.11068H179.993V13.2153H186.696V14.8381H179.993V19.1538H187.783Z" fill="black"/>
<path d="M193.53 9.11068H188.946V7.44922H200V9.11068H195.417V20.8152H193.527V9.11068H193.53Z" fill="black"/>
<path d="M108.432 0.876953H107.54V25.0083H108.432V0.876953Z" fill="black"/>
</svg>
