<svg width="40" height="41" viewBox="0 0 40 41" fill="none" xmlns="http://www.w3.org/2000/svg">
<g clip-path="url(#clip0_931_1778)">
<path d="M20 40.2217C31.0457 40.2217 40 31.2674 40 20.2217C40 9.17599 31.0457 0.22168 20 0.22168C8.95431 0.22168 0 9.17599 0 20.2217C0 31.2674 8.95431 40.2217 20 40.2217Z" fill="#FF0420"/>
<path d="M14.168 25.5336C12.976 25.5336 12 25.2536 11.24 24.6936C10.488 24.1256 10.112 23.3096 10.112 22.2616C10.112 22.0376 10.136 21.7736 10.184 21.4536C10.312 20.7336 10.496 19.8696 10.736 18.8536C11.416 16.1016 13.176 14.7256 16.008 14.7256C16.776 14.7256 17.472 14.8536 18.08 15.1176C18.688 15.3656 19.168 15.7496 19.52 16.2616C19.872 16.7656 20.048 17.3656 20.048 18.0616C20.048 18.2696 20.024 18.5336 19.976 18.8536C19.824 19.7416 19.648 20.6136 19.432 21.4536C19.08 22.8216 18.48 23.8536 17.616 24.5336C16.76 25.2056 15.608 25.5336 14.168 25.5336ZM14.384 23.3736C14.944 23.3736 15.416 23.2056 15.808 22.8776C16.208 22.5496 16.496 22.0456 16.664 21.3576C16.896 20.4136 17.072 19.5976 17.192 18.8936C17.232 18.6856 17.256 18.4696 17.256 18.2456C17.256 17.3336 16.784 16.8776 15.832 16.8776C15.272 16.8776 14.792 17.0456 14.392 17.3736C14 17.7016 13.72 18.2056 13.552 18.8936C13.368 19.5656 13.192 20.3816 13.008 21.3576C12.968 21.5576 12.944 21.7656 12.944 21.9896C12.936 22.9176 13.424 23.3736 14.384 23.3736Z" fill="white"/>
<path d="M20.744 25.3899C20.632 25.3899 20.552 25.3579 20.488 25.2859C20.44 25.2059 20.424 25.1179 20.44 25.0139L22.512 15.2539C22.528 15.1419 22.584 15.0539 22.68 14.9819C22.768 14.9099 22.864 14.8779 22.968 14.8779H26.96C28.072 14.8779 28.96 15.1099 29.632 15.5659C30.312 16.0299 30.656 16.6939 30.656 17.5659C30.656 17.8139 30.624 18.0779 30.568 18.3499C30.32 19.5019 29.816 20.3499 29.048 20.9019C28.296 21.4539 27.264 21.7259 25.952 21.7259H23.928L23.24 25.0139C23.216 25.1259 23.168 25.2139 23.072 25.2859C22.984 25.3579 22.888 25.3899 22.784 25.3899H20.744ZM26.056 19.6539C26.48 19.6539 26.84 19.5419 27.152 19.3099C27.472 19.0779 27.68 18.7499 27.784 18.3179C27.816 18.1499 27.832 17.9979 27.832 17.8699C27.832 17.5819 27.744 17.3579 27.576 17.2059C27.408 17.0459 27.112 16.9659 26.704 16.9659H24.904L24.336 19.6539H26.056Z" fill="white"/>
</g>
<defs>
<clipPath id="clip0_931_1778">
<rect width="40" height="40" fill="white" transform="translate(0 0.22168)"/>
</clipPath>
</defs>
</svg>
