<svg width="20" height="24" viewBox="0 0 20 24" fill="none" xmlns="http://www.w3.org/2000/svg">
<path d="M2.38542 23.4812C2.00387 23.6342 1.64734 23.5964 1.31584 23.3679C0.984337 23.1393 0.819059 22.8225 0.820004 22.4173V16.8484C0.820004 16.4668 0.909254 16.1042 1.08775 15.7604C1.26625 15.4175 1.51984 15.1437 1.8485 14.9387L3.54284 13.8295C3.70812 15.469 3.92109 16.8947 4.18175 18.1064C4.44242 19.3181 4.87167 20.7003 5.4695 22.253L2.38542 23.4812ZM7.42876 21.5914C7.15203 21.5914 6.923 21.4988 6.74167 21.3137C6.56034 21.1286 6.41962 20.9095 6.31951 20.6564C5.8095 19.2095 5.42323 17.8722 5.16067 16.6444C4.9 15.4175 4.76967 14.0339 4.76967 12.4935C4.76967 10.1948 5.12384 8.07449 5.83217 6.13271C6.5405 4.19093 7.65495 2.43001 9.17551 0.849958C9.27939 0.72718 9.40501 0.640764 9.55234 0.590708C9.69873 0.540653 9.84795 0.515625 10 0.515625C10.1521 0.515625 10.3013 0.540653 10.4477 0.590708C10.5941 0.640764 10.7201 0.72718 10.8259 0.849958C12.3465 2.42907 13.4609 4.18951 14.1693 6.13129C14.8776 8.07307 15.2318 10.1943 15.2318 12.495C15.2318 14.058 15.1052 15.4426 14.8521 16.6486C14.599 17.8547 14.2084 19.1906 13.6805 20.6564C13.5804 20.9095 13.4397 21.1286 13.2583 21.3137C13.077 21.4988 12.8484 21.5914 12.5727 21.5914H7.42876ZM10 12.655C10.5978 12.655 11.1012 12.4501 11.5102 12.0402C11.9201 11.6313 12.125 11.1279 12.125 10.53C12.125 9.93221 11.9201 9.42882 11.5102 9.01988C11.1003 8.61093 10.5969 8.40599 10 8.40504C9.40312 8.4041 8.89973 8.60904 8.48984 9.01988C8.07995 9.42882 7.875 9.93221 7.875 10.53C7.875 11.1279 8.07995 11.6313 8.48984 12.0402C8.89973 12.4492 9.40312 12.6541 10 12.655ZM17.5877 23.5095L14.5036 22.2799C15.1014 20.7272 15.5307 19.3408 15.7913 18.1205C16.052 16.9003 16.2645 15.4695 16.4288 13.828L18.1246 14.9656C18.4533 15.1706 18.7068 15.4445 18.8853 15.7873C19.0648 16.1311 19.1545 16.4937 19.1545 16.8753V22.4428C19.1545 22.8489 18.9888 23.1662 18.6573 23.3948C18.3258 23.6233 17.9692 23.6611 17.5877 23.5081" fill="#151515"/>
</svg>
