<svg width="41" height="41" viewBox="0 0 41 41" fill="none" xmlns="http://www.w3.org/2000/svg">
<g clip-path="url(#clip0_895_332)">
<path d="M21.8312 5.28731V1.8927C21.8312 1.15762 21.2351 0.561523 20.5 0.561523C19.7649 0.561523 19.1688 1.15762 19.1688 1.8927V5.28731C19.6077 5.24934 20.0515 5.22873 20.5 5.22873C20.9485 5.22873 21.3923 5.24934 21.8312 5.28731Z" fill="white"/>
<path d="M19.1688 35.8359V39.2305C19.1688 39.9656 19.7649 40.5617 20.5 40.5617C21.2351 40.5617 21.8312 39.9656 21.8312 39.2305V35.8359C21.3923 35.8739 20.9485 35.8945 20.5 35.8945C20.0515 35.8945 19.6077 35.8739 19.1688 35.8359Z" fill="white"/>
<path d="M39.1688 19.2305H35.7744C35.8122 19.6694 35.8328 20.1132 35.8328 20.5616C35.8328 21.0101 35.8123 21.4539 35.7744 21.8928H39.1688C39.9039 21.8928 40.5 21.2967 40.5 20.5616C40.5 19.8266 39.9039 19.2305 39.1688 19.2305Z" fill="white"/>
<path d="M5.22566 19.2305H1.83118C1.09609 19.2305 0.5 19.8266 0.5 20.5616C0.5 21.2967 1.09609 21.8928 1.83118 21.8928H5.22566C5.18781 21.4539 5.1672 21.0101 5.1672 20.5616C5.1672 20.1132 5.18781 19.6694 5.22566 19.2305Z" fill="white"/>
<path d="M19.1688 12.608V5.28809C11.7743 5.92701 5.86458 11.8361 5.22566 19.2307H12.5461C13.1105 15.8481 15.7862 13.1724 19.1688 12.608Z" fill="white"/>
<path d="M25.1672 19.2299H26.2836C25.7758 17.0242 24.0367 15.2851 21.831 14.7773V15.8937C21.831 16.6288 21.2349 17.2249 20.4999 17.2249C19.7648 17.2249 19.1687 16.6288 19.1687 15.8937V14.7773C16.963 15.2851 15.2239 17.0242 14.7162 19.2299H15.8325C16.5676 19.2299 17.1637 19.826 17.1637 20.561C17.1637 21.2961 16.5676 21.8922 15.8325 21.8922H14.7162C15.2239 24.0979 16.963 25.837 19.1687 26.3448V25.2284C19.1687 24.4933 19.7648 23.8972 20.4999 23.8972C21.2349 23.8972 21.831 24.4933 21.831 25.2284V26.3448C24.0367 25.837 25.7758 24.0979 26.2836 21.8922H25.1672C24.4321 21.8922 23.836 21.2961 23.836 20.561C23.836 19.826 24.4321 19.2299 25.1672 19.2299ZM20.5 22.7927C19.2694 22.7927 18.2683 21.7915 18.2683 20.561C18.2683 19.3306 19.2696 18.3294 20.5 18.3294C21.7304 18.3294 22.7316 19.3306 22.7316 20.561C22.7316 21.7915 21.7306 22.7927 20.5 22.7927Z" fill="white"/>
<path d="M21.8312 5.28809V12.6081C25.2138 13.1724 27.8895 15.8482 28.4539 19.2308H35.7745C35.1354 11.8362 29.2257 5.92701 21.8312 5.28809Z" fill="white"/>
<path d="M21.8312 28.5152V35.8352C29.2257 35.1963 35.1354 29.2871 35.7743 21.8926H28.4538C27.8895 25.2751 25.2138 27.9508 21.8312 28.5152Z" fill="white"/>
<path d="M19.1688 28.5153C15.7862 27.951 13.1105 25.2752 12.5461 21.8926H5.22566C5.86458 29.2872 11.7743 35.1963 19.1688 35.8352V28.5153Z" fill="white"/>
</g>
<defs>
<clipPath id="clip0_895_332">
<rect width="40" height="40" fill="white" transform="translate(0.5 0.561523)"/>
</clipPath>
</defs>
</svg>
