<svg width="26" height="29" viewBox="0 0 26 29" fill="none" xmlns="http://www.w3.org/2000/svg">
<path fill-rule="evenodd" clip-rule="evenodd" d="M13 0.869141C6.09625 0.869141 0.5 6.46539 0.5 13.3691C0.5 20.2729 6.09625 25.8691 13 25.8691C19.9037 25.8691 25.5 20.2729 25.5 13.3691C25.5 6.46539 19.9037 0.869141 13 0.869141ZM13 2.11914C13 5.10283 11.8147 7.96431 9.70495 10.0741C7.59517 12.1839 4.73369 13.3691 1.75 13.3691C4.73369 13.3691 7.59517 14.5544 9.70495 16.6642C11.8147 18.774 13 21.6355 13 24.6191C13 21.6355 14.1853 18.774 16.295 16.6642C18.4048 14.5544 21.2663 13.3691 24.25 13.3691C21.2663 13.3691 18.4048 12.1839 16.295 10.0741C14.1853 7.96431 13 5.10283 13 2.11914Z" fill="black"/>
</svg>
