<svg width="126" height="16" viewBox="0 0 126 16" fill="none" xmlns="http://www.w3.org/2000/svg">
<path d="M17.7592 0.326149H21.4485L27.053 8.1895V0.326149H31.3887V15.1779H27.6753L22.095 7.33685V15.1779H17.7592V0.326149Z" fill="black"/>
<path d="M35.273 13.8497C33.9894 12.8113 33.3466 11.3475 33.3466 9.45641V0.324295H37.6824V8.99572C37.6824 10.8106 38.5815 11.7171 40.3796 11.7171C42.1778 11.7171 43.0546 10.8106 43.0546 8.99572V0.324295H47.3903V9.45641C47.3903 10.7177 47.0987 11.7933 46.5135 12.685C45.9284 13.5766 45.1073 14.2528 44.0466 14.7135C42.9859 15.1742 41.7636 15.4045 40.3796 15.4045C38.2582 15.4045 36.5548 14.8863 35.2712 13.8479L35.273 13.8497Z" fill="black"/>
<path d="M51.3582 15.1649C50.4666 15.0033 49.7124 14.7767 49.0975 14.485V10.9109C49.8052 11.2342 50.5817 11.4961 51.427 11.6949C52.2722 11.8955 53.0561 11.9939 53.7787 11.9939C54.6091 11.9939 55.2054 11.9215 55.5658 11.7747C55.9261 11.628 56.1082 11.34 56.1082 10.9109C56.1082 10.6341 56.019 10.4075 55.8425 10.231C55.6661 10.0546 55.4079 9.90038 55.0698 9.77035C54.7317 9.64031 54.193 9.45827 53.4555 9.22792C53.2103 9.16662 53.0245 9.11275 52.9019 9.06631C51.8877 8.74308 51.0907 8.39013 50.5149 8.0056C49.939 7.62107 49.5229 7.15666 49.2702 6.61052C49.0158 6.06437 48.8894 5.38448 48.8894 4.56898C48.8894 3.10888 49.4114 1.99802 50.4573 1.23639C51.5031 0.474759 53.0394 0.0958023 55.0698 0.0958023C55.8537 0.0958023 56.6803 0.16082 57.5479 0.290854C58.4172 0.420888 59.1343 0.578788 59.7046 0.764551V4.36278C58.3522 3.82407 57.037 3.55657 55.7608 3.55657C54.9453 3.55657 54.3342 3.61787 53.9273 3.74048C53.5205 3.86308 53.3162 4.13244 53.3162 4.54854C53.3162 4.81047 53.3998 5.01853 53.5707 5.17085C53.7397 5.32504 53.9979 5.45879 54.3434 5.57396C54.689 5.68913 55.2778 5.85446 56.1082 6.06995C57.2915 6.39317 58.2017 6.78142 58.8408 7.23468C59.4779 7.68794 59.92 8.20622 60.1671 8.79137C60.4123 9.37653 60.5368 10.0824 60.5368 10.9128C60.5368 12.2967 60.0018 13.3909 58.9336 14.1989C57.8655 15.0052 56.294 15.4101 54.2171 15.4101C53.2029 15.4101 52.2499 15.3302 51.3582 15.1686V15.1649Z" fill="black"/>
<path d="M13.483 6.41175L10.2098 6.43776V8.99572C10.2098 10.8106 9.31818 11.7171 7.53485 11.7171C5.75152 11.7171 4.83571 10.8106 4.83571 8.99572V0.324295H0.5V9.45641C0.5 11.3475 1.14088 12.8113 2.42636 13.8497C3.70999 14.8881 5.41343 15.4064 7.53485 15.4064C8.91879 15.4064 10.1411 15.1761 11.2018 14.7154C12.1566 14.3011 12.9146 13.7104 13.4848 12.9469V6.41175H13.483Z" fill="black"/>
<path d="M14.4694 0.326149H10.208V3.18876C11.0922 3.15904 13.9158 2.86367 14.4694 0.326149Z" fill="black"/>
<path d="M87.6954 4.43337L84.9033 12.7871H83.6494L81.3701 6.11639L79.0908 12.7871H77.8146L75.0226 4.43337H76.2523L78.5075 11.223L80.8593 4.43337H81.9571L84.2606 11.2602L86.564 4.43337H87.6972H87.6954Z" fill="black"/>
<path d="M94.2101 10.6992H89.7703L88.8508 12.7871H87.6211L91.4032 4.43336H92.5846L96.3798 12.7871H95.1259L94.2064 10.6992H94.2101ZM93.794 9.74433L91.9921 5.65197L90.1902 9.74433H93.794Z" fill="black"/>
<path d="M97.6244 4.43336H98.817V11.7487H103.34V12.7871H97.6244V4.43336Z" fill="black"/>
<path d="M104.713 4.43336H105.906V11.7487H110.429V12.7871H104.713V4.43336Z" fill="black"/>
<path d="M117.865 11.7487V12.7871H111.804V4.43336H117.698V5.47178H112.996V8.03717H117.185V9.05144H112.996V11.7487H117.865Z" fill="black"/>
<path d="M121.456 5.47178H118.591V4.43336H125.5V5.47178H122.636V12.7871H121.454V5.47178H121.456Z" fill="black"/>
<path d="M68.2701 0.326149H67.7128V15.4083H68.2701V0.326149Z" fill="black"/>
</svg>
