<svg width="64" height="65" viewBox="0 0 64 65" fill="none" xmlns="http://www.w3.org/2000/svg">
<path d="M5.33386 16.2531C5.33386 13.4241 6.45767 10.711 8.45806 8.71062C10.4584 6.71023 13.1716 5.58643 16.0005 5.58643H48.0005C50.8295 5.58643 53.5426 6.71023 55.543 8.71062C57.5434 10.711 58.6672 13.4241 58.6672 16.2531V48.2531C58.6672 51.0821 57.5434 53.7952 55.543 55.7956C53.5426 57.7959 50.8295 58.9198 48.0005 58.9198H16.0005C13.1716 58.9198 10.4584 57.7959 8.45806 55.7956C6.45767 53.7952 5.33386 51.0821 5.33386 48.2531V16.2531Z" stroke="white" stroke-width="3" stroke-linecap="round" stroke-linejoin="round"/>
<path d="M22.6662 29.587C26.3481 29.587 29.3328 26.6022 29.3328 22.9203C29.3328 19.2384 26.3481 16.2537 22.6662 16.2537C18.9843 16.2537 15.9995 19.2384 15.9995 22.9203C15.9995 26.6022 18.9843 29.587 22.6662 29.587Z" stroke="white" stroke-width="3" stroke-linecap="round" stroke-linejoin="round"/>
<path d="M38.7355 33.9084L15.9995 58.9191H48.3542C51.0891 58.9191 53.712 57.8326 55.6459 55.8988C57.5797 53.9649 58.6662 51.342 58.6662 48.6071V48.2524C58.6662 47.0098 58.1995 46.5324 57.3595 45.6124L46.6128 33.8924C46.112 33.3461 45.5027 32.9101 44.824 32.6123C44.1452 32.3146 43.4118 32.1616 42.6706 32.1631C41.9295 32.1646 41.1967 32.3206 40.5192 32.6211C39.8416 32.9216 39.2342 33.36 38.7355 33.9084Z" stroke="white" stroke-width="3" stroke-linecap="round" stroke-linejoin="round"/>
</svg>
